<?xml version="1.0" standalone="no"?><!DOCTYPE svg PUBLIC "-//W3C//DTD SVG 1.1//EN" "http://www.w3.org/Graphics/SVG/1.1/DTD/svg11.dtd"><svg t="1577325353704" class="icon" viewBox="0 0 1024 1024" version="1.1" xmlns="http://www.w3.org/2000/svg" p-id="1049" xmlns:xlink="http://www.w3.org/1999/xlink" width="200" height="200"><defs><style type="text/css"></style></defs><path d="M877.61578666 729.98229334a6.00746667 6.00746667 0 1 0 12.01493334 0 6.00746667 6.00746667 0 0 0-12.01493334 0z m-132.43733333 136.64256a11.90570667 11.90570667 0 1 0 23.86602667 0 11.90570667 11.90570667 0 0 0-23.86602667 0z m-178.47637333 70.28736a17.91317333 17.91317333 0 1 0 35.88096 0 17.91317333 17.91317333 0 0 0-35.88096 0zM374.57237333 927.57333334a23.86602667 23.86602667 0 1 0 47.73205333 0 23.86602667 23.86602667 0 0 0-47.73205333 0z m-170.3936-87.49056a29.87349333 29.87349333 0 1 0 59.69237333 0 29.87349333 29.87349333 0 0 0-59.74698666 0zM86.05013333 691.37066667a35.88096 35.88096 0 1 0 71.70730667 0 35.88096 35.88096 0 0 0-71.70730667 0zM41.81333333 508.79829334a41.7792 41.7792 0 1 0 83.5584 0 41.7792 41.7792 0 0 0-83.5584 0z m36.42709333-181.42549334a47.78666667 47.78666667 0 1 0 95.57333334 0 47.78666667 47.78666667 0 0 0-95.57333334 0zM187.63093333 181.11829334a53.79413333 53.79413333 0 1 0 107.58826667 0 53.79413333 53.79413333 0 0 0-107.58826667 0zM348.19413333 97.45066667a59.69237333 59.69237333 0 1 0 119.38474667 0 59.69237333 59.69237333 0 0 0-119.43936 0z m180.27861333-5.24288a65.69984 65.69984 0 1 0 131.45429334 0 65.69984 65.69984 0 0 0-131.45429334 0z m165.09610667 74.27413333a71.65269333 71.65269333 0 1 0 143.30538667 0 71.65269333 71.65269333 0 0 0-143.30538667 0z m117.36405333 139.53706667a77.66016 77.66016 0 1 0 155.26570667 0 77.66016 77.66016 0 0 0-155.26570667 0z m46.63978667 180.77013333a83.61301333 83.61301333 0 1 0 167.28064 0 83.61301333 83.61301333 0 0 0-167.28064 0z" fill="" p-id="1050"></path></svg>